<?xml version="1.0" encoding="UTF-8" standalone="no"?><!DOCTYPE svg PUBLIC "-//W3C//DTD SVG 1.1//EN" "http://www.w3.org/Graphics/SVG/1.1/DTD/svg11.dtd"><svg width="100%" height="100%" viewBox="0 0 1090 1170" version="1.1" xmlns="http://www.w3.org/2000/svg" xmlns:xlink="http://www.w3.org/1999/xlink" xml:space="preserve" xmlns:serif="http://www.serif.com/" style="fill-rule:evenodd;clip-rule:evenodd;stroke-linejoin:round;stroke-miterlimit:1.41421;"><rect x="0" y="0" width="1089.7" height="1169.22" style="fill:none;"/><path d="M410.871,1005.09c5.449,0 8.976,5.85 6.353,10.62c-12.24,22.28 -35.916,37.38 -63.129,37.38c-27.213,0 -50.889,-15.1 -63.128,-37.38c-2.624,-4.77 0.903,-10.62 6.352,-10.62l113.552,0Zm28.281,-11.69l-164.231,0c-19.434,0 -35.19,-14.39 -35.19,-32.14c0,-17.75 15.756,-32.15 35.19,-32.15l164.231,0c19.434,0 35.19,14.4 35.19,32.15c0,17.744 -15.745,32.13 -35.19,32.14Zm51.336,-251.181c0.659,0.12 5.983,2.461 11.568,7.286c8.553,7.39 17.717,20.607 11.677,40.596c-10.37,34.316 -43.05,31.73 -44.32,31.519c-173.235,-28.759 -288.368,-175.057 -287.696,-352.799c0.747,-197.783 165.25,-357.737 367.124,-356.974c201.874,0.763 365.163,161.956 364.416,359.739c-0.527,139.383 -83.105,289.4 -213.62,334.318l117.641,94.532c18.888,19.734 18.561,50.703 -0.718,69.155c-19.273,18.446 -50.201,17.414 -69.11,-2.321c0,0 -78.415,-73.663 -141.652,-132.573c-21.08,-19.638 -16.738,-65.412 38.109,-84.906c96.687,-34.366 181.04,-143.482 181.551,-278.713c0.568,-150.193 -122.537,-272.597 -274.735,-273.172c-152.199,-0.576 -276.225,120.895 -276.793,271.087c-0.505,133.658 87.835,249.857 216.558,273.226Zm-37.761,175.081l-193.922,0c-12.356,0 -22.372,-14.39 -22.372,-32.14c0,-17.75 10.016,-32.14 22.372,-32.14l193.922,0c12.355,0 22.372,14.39 22.372,32.14c0,17.739 -10.005,32.123 -22.372,32.14Zm10.033,-78.641l-199.27,0c-17.75,0 -23.954,-16.778 -23.954,-34.528c0,0 -0.636,-106.074 -0.658,-107.382c-0.008,-0.495 0.207,-0.726 0.426,-0.791c0.151,-0.045 0.402,0.142 0.802,0.722c3.143,4.564 12.271,18.504 36.997,44.733c10.592,11.236 38.501,33.141 42.432,35.969c17.679,12.718 39.069,25.517 62.526,34.467c40.506,15.453 81.769,22.81 81.769,22.81c1.893,1.096 1.125,3.98 -1.07,4Z" style="fill:#fff;"/></svg>